<svg xmlns="http://www.w3.org/2000/svg" viewBox="0 0 512 512">
  <defs>
    <linearGradient id="sky" x1="0" y1="0" x2="0" y2="1">
      <stop offset="0" stop-color="#f7ead6"/><stop offset=".62" stop-color="#f1d3ad"/><stop offset="1" stop-color="#e9bf92"/>
    </linearGradient>
    <radialGradient id="glow" cx="256" cy="236" r="170" gradientUnits="userSpaceOnUse">
      <stop offset="0" stop-color="#fff4dc" stop-opacity=".9"/><stop offset="1" stop-color="#fff4dc" stop-opacity="0"/>
    </radialGradient>
  </defs>
  <rect width="512" height="512" fill="url(#sky)"/>
  <circle cx="256" cy="236" r="170" fill="url(#glow)"/>
  <circle cx="256" cy="240" r="74" fill="#d9874b"/>
  <path d="M0 318 C70 262 132 250 196 286 C238 310 276 270 330 248 C392 222 450 252 512 300 L512 512 L0 512 Z" fill="#8fa99c"/>
  <path d="M0 362 C64 330 118 322 178 346 C236 370 286 330 350 318 C414 306 466 330 512 352 L512 512 L0 512 Z" fill="#5d8475"/>
  <path d="M0 414 C80 384 150 384 226 404 C300 424 380 396 512 400 L512 512 L0 512 Z" fill="#2f5d50"/>
</svg>
